<?xml version="1.0" encoding="UTF-8"?>
<svg viewBox="0 0 128 128" version="1.1" xmlns="http://www.w3.org/2000/svg" xmlns:xlink="http://www.w3.org/1999/xlink">
  <!-- Generator: Sketch 52.6 (67491) - http://www.bohemiancoding.com/sketch -->
  <title>zh-logo</title>
  <desc>Created with Sketch.</desc>
  <defs>
    <linearGradient x1="69.644116%" y1="0%" x2="69.644116%" y2="100%" id="linearGradient-1">
      <stop stop-color="#29CDFF" offset="0%"></stop>
      <stop stop-color="#148EFF" offset="37.8600687%"></stop>
      <stop stop-color="#0A60FF" offset="100%"></stop>
    </linearGradient>
    <linearGradient x1="-19.8191553%" y1="-36.7931464%" x2="138.57919%" y2="157.637507%" id="linearGradient-2">
      <stop stop-color="#29CDFF" offset="0%"></stop>
      <stop stop-color="#0F78FF" offset="100%"></stop>
    </linearGradient>
    <linearGradient x1="68.1279872%" y1="-35.6905737%" x2="30.4400914%" y2="114.942679%" id="linearGradient-3">
      <stop stop-color="#FA8E7D" offset="0%"></stop>
      <stop stop-color="#F74A5C" offset="51.2635191%"></stop>
      <stop stop-color="#F51D2C" offset="100%"></stop>
    </linearGradient>
  </defs>
  <g id="zh-logo" stroke="none" stroke-width="1" fill="none" fill-rule="evenodd">
    <g id="Group" transform="translate(1.000000, 8.000000)">
      <g transform="scale(2.2)">
        <path d="M55.393,13.445c-1.197-0.149-6.282,13.761-6.282,13.761L31.91,26.607c0,0-4.188-13.163-6.582-13.163  c-2.393,0-3.291,25.727-15.854,41.282C21.888,74.919,59.58,64.3,63.619,58.915C67.657,53.53,56.589,13.594,55.393,13.445z   M28.32,55.924c-4.048,0-7.083-4.416-7.083-9.124c0-4.709,3.158-10.77,7.206-10.77s7.206,6.51,7.206,11.218  C35.649,51.957,32.368,55.924,28.32,55.924z M50.297,55.924c-4.047,0-7.082-4.416-7.082-9.124c0-4.709,3.158-10.77,7.205-10.77  c4.048,0,7.206,6.51,7.206,11.218C57.626,51.957,54.345,55.924,50.297,55.924z" transform="translate(-9.4739990234375,-13.443811416625977)" fill="#000000"></path>
        <ellipse cx="28.619" cy="46.039" rx="1.442" ry="9.632" transform="translate(-9.4739990234375,-13.443811416625977)" fill="#000000"></ellipse>
        <ellipse cx="50.307" cy="46.039" rx="1.442" ry="9.632" transform="translate(-9.4739990234375,-13.443811416625977)" fill="#000000"></ellipse>
      </g>
    </g>
  </g>
</svg>